# xmcd
#
# Track frame offsets:
#	150
#	16352
#	33355
#	52525
#	65652
#	83645
#	95152
#	113560
#	128702
#	145575
#	163462
#	182190
#	199105
#	213495
#	231720
#
# Disc length: 3286 seconds
#
# Revision: 6
# Processed by: cddbd v1.5.1PL2 Copyright (c) Steve Scherf et al.
# Submitted via: dBpowerAMP V4.0
#
DISCID=d30cd40f
DTITLE=Vince Gill - Souvenirs
DYEAR=1995
DGENRE=Country
TTITLE0=Never Alone
TTITLE1=Never Knew Lonely
TTITLE2=When I Call Your Name
TTITLE3=Liza Jane
TTITLE4=Look at Us
TTITLE5=Take Your Memory With You
TTITLE6=Pocket Full of Gold
TTITLE7=The Heart Won't Lie (With Reba Mcentire)
TTITLE8=Don't Let Our Love Start Slippin' Away
TTITLE9=I Still Believe in You
TTITLE10=No Future in The Past
TTITLE11=Tryin' to Get Over You
TTITLE12=One More Last Chance
TTITLE13=I Can't Tell You Why
TTITLE14=I Will Always Love You (With Dolly Parton)
EXTD=Challenge "Rip not accurate"  Ripped twice, different computers.  Vince Gill - Souvenirs, not BMG Record CD.
EXTT0=
EXTT1=
EXTT2=
EXTT3=
EXTT4=
EXTT5=
EXTT6=
EXTT7=
EXTT8=
EXTT9=
EXTT10=
EXTT11=
EXTT12=
EXTT13=
EXTT14=
PLAYORDER=
